<?xml version="1.0" encoding="iso-8859-1"?>
<!-- Generator: Adobe Illustrator 16.0.0, SVG Export Plug-In . SVG Version: 6.00 Build 0)  -->
<!DOCTYPE svg PUBLIC "-//W3C//DTD SVG 1.1//EN" "http://www.w3.org/Graphics/SVG/1.1/DTD/svg11.dtd">
<svg version="1.1" id="Capa_1" xmlns="http://www.w3.org/2000/svg" xmlns:xlink="http://www.w3.org/1999/xlink" x="0px" y="0px"
	 width="418.539px" height="418.54px" viewBox="0 0 418.539 418.54" style="enable-background:new 0 0 418.539 418.54;"
	 xml:space="preserve">
<g>
	<g>
		<path d="M417.844,211.618c-1.82-13.687-10.098-25.986-22.715-33.749c-9.018-5.55-19.273-8.124-28.969-7.521
			c-0.031-4.115-3.373-7.442-7.496-7.442H7.5c-4.143,0-7.5,3.357-7.5,7.5c0,34.648,9.727,68.382,28.131,97.55
			c13.785,21.848,31.971,40.441,53.275,54.689c-19.482,2.626-36.213,5.993-49.117,9.925C18.428,336.792,0,343.995,0,357.726
			c0,11.696,13.695,17.92,18.195,19.966c9.381,4.265,22.609,8.054,39.316,11.266c33.615,6.462,78.209,10.021,125.57,10.021
			c47.358,0,91.954-3.559,125.569-10.021c16.707-3.212,29.936-7.001,39.316-11.266c4.5-2.046,18.195-8.27,18.195-19.966
			c0-13.731-18.428-20.935-32.289-25.157c-12.904-3.932-29.635-7.299-49.117-9.925c7.379-4.936,14.393-10.38,20.969-16.314
			c6.223-2.151,12.586-4.244,18.762-6.271c25.283-8.3,49.166-16.139,66.879-28.726C412.523,256.296,421.184,236.763,417.844,211.618
			z M326.883,346.143c19.748,5.652,23.605,10.583,24.205,11.581c-0.807,1.321-7.453,9.653-48.781,17.159
			c-32.287,5.863-74.629,9.094-119.225,9.094c-44.596,0-86.938-3.229-119.225-9.094c-41.328-7.506-47.977-15.838-48.783-17.159
			c0.6-0.998,4.457-5.929,24.207-11.581c16.098-4.606,38.203-8.383,64.01-10.947c24.98,12.128,51.809,18.291,79.791,18.291
			c27.982,0,54.811-6.163,79.791-18.291C288.68,337.76,310.785,341.537,326.883,346.143z M297.57,293.567l-1.59,1.472
			c-11.188,10.089-23.854,18.793-37.817,25.776c-23.44,11.728-48.703,17.672-75.08,17.672s-51.639-5.944-75.08-17.672
			c-55.119-27.569-90.176-81.857-92.84-142.91h335.771l-0.203,4.492C347.713,225.495,328.52,264.922,297.57,293.567z
			 M327.143,283.393c3.879-4.941,7.516-10.094,10.889-15.438c15.73-24.931,25.115-53.194,27.516-82.517
			c7.039-0.849,14.82,0.959,21.725,5.205c8.758,5.39,14.482,13.754,15.705,22.95C408.398,254.41,371.633,268.676,327.143,283.393z"
			/>
		<path d="M151.047,118.917c-2.316,3.435-1.41,8.096,2.023,10.411c1.287,0.867,2.744,1.282,4.188,1.282
			c2.408,0,4.775-1.158,6.225-3.308c5.668-8.404,12.824-28.231-0.66-43.113c-8.732-9.637,0.074-22.247,0.508-22.854
			c2.426-3.337,1.701-8.012-1.627-10.456c-3.338-2.449-8.033-1.731-10.484,1.606c-5.785,7.881-13.127,26.751,0.488,41.776
			C160.643,104.125,151.424,118.345,151.047,118.917z"/>
		<path d="M202.682,89.054c-2.316,3.435-1.41,8.096,2.025,10.411c1.285,0.867,2.744,1.283,4.186,1.283
			c2.41,0,4.777-1.159,6.225-3.309c5.668-8.404,12.823-28.231-0.66-43.113c-8.732-9.638,0.074-22.247,0.511-22.855
			c2.426-3.337,1.7-8.012-1.63-10.456c-3.336-2.45-8.031-1.73-10.484,1.607c-5.783,7.88-13.127,26.751,0.488,41.775
			C212.277,74.26,203.059,88.482,202.682,89.054z"/>
	</g>
</g>
<g>
</g>
<g>
</g>
<g>
</g>
<g>
</g>
<g>
</g>
<g>
</g>
<g>
</g>
<g>
</g>
<g>
</g>
<g>
</g>
<g>
</g>
<g>
</g>
<g>
</g>
<g>
</g>
<g>
</g>
</svg>
