<?xml version="1.0" encoding="utf-8"?>
<!-- Generator: Adobe Illustrator 16.0.0, SVG Export Plug-In . SVG Version: 6.00 Build 0)  -->
<!DOCTYPE svg PUBLIC "-//W3C//DTD SVG 1.1//EN" "http://www.w3.org/Graphics/SVG/1.1/DTD/svg11.dtd">
<svg version="1.1" id="Layer_1" xmlns="http://www.w3.org/2000/svg" xmlns:xlink="http://www.w3.org/1999/xlink" x="0px" y="0px"
	 width="27.493px" height="27.266px" viewBox="0 0 27.493 27.266" enable-background="new 0 0 27.493 27.266" xml:space="preserve">
<g>
	<g>
		<g>
			<path d="M27.493,27.266H0V0h27.493V27.266z M1.83,25.436h23.833V1.83H1.83V25.436z M22.923,22.012
				c-0.993,0-1.967-0.022-2.954-0.292c-2.94-0.802-5.164-3.106-5.985-5.9c-0.112,0.388-0.252,0.771-0.419,1.146
				c-1.158,2.597-3.472,4.386-6.347,4.908c-1.069,0.194-2.115,0.104-2.888,0.138c-0.002,0-0.003,0-0.005,0
				c-0.47,0-0.731-0.178-0.879-0.327c-0.328-0.332-0.322-0.741-0.32-0.916L3.127,4.879l0.825-0.081
				c4.152-0.406,7.188,0.945,9.085,4.025c0.418,0.679,0.735,1.402,0.951,2.151c0.938-3.305,3.622-5.703,7.043-6.146
				c0.889-0.114,1.74-0.057,2.585-0.087l0.055-0.001c0.426,0,0.693,0.182,0.843,0.334C24.843,5.41,24.835,5.823,24.831,6
				L24.83,20.571c0,1.036-0.408,1.439-1.457,1.439L22.923,22.012z M23,6.582c-0.604,0.001-1.188-0.009-1.734,0.062
				c-3.063,0.396-5.375,2.814-5.752,6.018c-0.386,3.284,1.736,6.419,4.937,7.292c0.771,0.209,1.575,0.227,2.473,0.227H23V6.582z
				 M4.957,6.564L4.956,17.585l0.001,2.584c0.688-0.01,1.35,0.009,1.933-0.097c2.271-0.413,4.095-1.817,5.003-3.854
				c0.934-2.094,0.778-4.499-0.414-6.435C10.075,7.506,7.922,6.462,4.957,6.564z M23.671,5.907l-0.67,0.014
				c0.001,0.038,0.007,0.076,0.017,0.114L23.671,5.907z"/>
		</g>
	</g>
</g>
</svg>
