<?xml version="1.0" encoding="iso-8859-1"?>
<!-- Generator: Adobe Illustrator 18.0.0, SVG Export Plug-In . SVG Version: 6.00 Build 0)  -->
<!DOCTYPE svg PUBLIC "-//W3C//DTD SVG 1.1//EN" "http://www.w3.org/Graphics/SVG/1.1/DTD/svg11.dtd">
<svg version="1.1" id="Capa_1" xmlns="http://www.w3.org/2000/svg" xmlns:xlink="http://www.w3.org/1999/xlink" x="0px" y="0px"
	 viewBox="0 0 395 395" style="enable-background:new 0 0 395 395;" xml:space="preserve">
<g>
	<g>
		<path d="M162.595,215.213c10.282,0,18.619-8.329,18.619-18.61c0-10.28-8.337-18.617-18.619-18.617
			c-10.278,0-18.62,8.337-18.62,18.617C143.975,206.884,152.317,215.213,162.595,215.213z"/>
		<path d="M162.597,217.82c-22.292,0-28.766,9.367-31.487,45.558c-0.245,3.253,2.194,6.088,5.447,6.333
			c0.151,0.011,0.3,0.017,0.449,0.017c3.061,0,5.65-2.362,5.884-5.464c1.004-13.358,2.317-21.55,4.262-26.59
			c-0.198,0.997-0.306,2.026-0.306,3.082v22.722c0,1.22,0.152,2.4,0.414,3.54v49.899c0,3.806,3.085,6.891,6.891,6.891
			c3.806,0,6.891-3.085,6.891-6.891V279.15c0.512,0.05,1.03,0.078,1.555,0.078c0.522,0,1.038-0.028,1.547-0.078v37.767
			c0,3.806,3.086,6.891,6.891,6.891c3.806,0,6.891-3.085,6.891-6.891v-49.87c0.267-1.148,0.421-2.34,0.421-3.569v-22.722
			c0-1.054-0.108-2.082-0.305-3.077c1.943,5.04,3.255,13.23,4.258,26.584c0.245,3.253,3.085,5.69,6.332,5.448
			c3.253-0.245,5.692-3.08,5.448-6.333C191.362,227.188,184.888,217.82,162.597,217.82z"/>
		<path d="M232.403,215.213c10.28,0,18.622-8.329,18.622-18.61c0-10.28-8.342-18.617-18.622-18.617
			c-10.28,0-18.617,8.337-18.617,18.617C213.786,206.884,222.123,215.213,232.403,215.213z"/>
		<path d="M232.403,217.82c-22.291,0-28.765,9.367-31.484,45.558c-0.244,3.253,2.194,6.088,5.448,6.333
			c0.15,0.011,0.3,0.017,0.449,0.017c3.061,0,5.65-2.362,5.884-5.465c0.95-12.643,2.176-20.655,3.953-25.752v18.059l-5.862,26.342
			c-0.114,0.513,0.011,1.049,0.339,1.459c0.329,0.41,0.825,0.648,1.351,0.648h4.589v31.898c0,3.806,3.085,6.891,6.891,6.891
			c3.806,0,6.891-3.085,6.891-6.891v-31.898h3.104v31.898c0,3.806,3.085,6.891,6.891,6.891c3.806,0,6.891-3.085,6.891-6.891v-31.898
			h4.594c0.007,0,0.013,0,0.02,0c0.956,0,1.731-0.775,1.731-1.731c0-0.222-0.041-0.434-0.117-0.628l-5.812-26.111v-18.049
			c1.779,5.096,3.006,13.111,3.956,25.764c0.244,3.253,3.083,5.693,6.333,5.448c3.253-0.244,5.692-3.08,5.448-6.333
			C261.173,227.188,254.699,217.82,232.403,217.82z"/>
		<path d="M277.102,135.343H117.898c-17.925,0-32.508,14.583-32.508,32.508v159.204c0,17.925,14.583,32.509,32.508,32.509h159.204
			c17.925,0,32.509-14.584,32.509-32.509V167.851C309.61,149.926,295.027,135.343,277.102,135.343z M289.61,327.055
			c0,6.897-5.611,12.509-12.509,12.509H117.898c-6.897,0-12.508-5.611-12.508-12.509V167.851c0-6.896,5.611-12.508,12.508-12.508
			h159.204c6.897,0,12.509,5.611,12.509,12.508V327.055z"/>
		<path d="M149.674,72.483c0.976-0.977,1.953-1.953,2.929-2.929v36.549c0,1.647-0.051,3.267,0.445,4.87
			c1.341,4.338,5.583,7.275,10.113,7.026c4.511-0.248,8.398-3.633,9.258-8.068c0.267-1.376,0.184-2.821,0.184-4.217v-36.16
			c2.332,2.331,4.477,4.891,7.864,5.628c5.099,1.109,10.35-2.028,11.763-7.057c1.014-3.606-0.121-7.351-2.738-9.969l-19.815-19.815
			c-3.076-3.075-7.951-3.794-11.789-1.747c-1.587,0.85-2.783,2.174-4.038,3.429l-17.556,17.556c-0.871,0.87-1.715,1.733-2.342,2.813
			c-1.588,2.731-1.777,6.146-0.508,9.04C136.225,75.774,144.783,77.374,149.674,72.483z"/>
		<path d="M225.325,115.109c3.076,3.076,7.951,3.794,11.789,1.748c1.587-0.851,2.783-2.174,4.038-3.429l17.556-17.556
			c0.871-0.871,1.715-1.733,2.342-2.813c1.588-2.732,1.777-6.147,0.508-9.041c-2.782-6.343-11.34-7.941-16.231-3.051
			c-0.976,0.975-1.953,1.952-2.929,2.929V47.349c0-1.648,0.051-3.267-0.445-4.87c-1.341-4.338-5.583-7.276-10.113-7.027
			c-4.511,0.248-8.398,3.633-9.258,8.069c-0.267,1.375-0.184,2.821-0.184,4.217v36.16c-2.332-2.332-4.477-4.891-7.864-5.628
			c-5.099-1.11-10.35,2.028-11.763,7.056c-1.014,3.606,0.121,7.352,2.738,9.969L225.325,115.109z"/>
	</g>
	<path d="M313.001,0H81.999C36.785,0,0,36.784,0,81.998v230.993C0,358.211,36.785,395,81.999,395h231.002
		C358.216,395,395,358.211,395,312.991V81.998C395,36.784,358.216,0,313.001,0z M380,312.991C380,349.94,349.945,380,313.001,380
		H81.999C45.056,380,15,349.94,15,312.991V81.998C15,45.055,45.056,15,81.999,15h231.002C349.945,15,380,45.055,380,81.998V312.991z
		"/>
</g>
<g>
</g>
<g>
</g>
<g>
</g>
<g>
</g>
<g>
</g>
<g>
</g>
<g>
</g>
<g>
</g>
<g>
</g>
<g>
</g>
<g>
</g>
<g>
</g>
<g>
</g>
<g>
</g>
<g>
</g>
</svg>
