<?xml version="1.0" encoding="iso-8859-1"?>
<!-- Generator: Adobe Illustrator 16.0.0, SVG Export Plug-In . SVG Version: 6.00 Build 0)  -->
<!DOCTYPE svg PUBLIC "-//W3C//DTD SVG 1.1//EN" "http://www.w3.org/Graphics/SVG/1.1/DTD/svg11.dtd">
<svg version="1.1" id="Capa_1" xmlns="http://www.w3.org/2000/svg" xmlns:xlink="http://www.w3.org/1999/xlink" x="0px" y="0px"
	 width="934.573px" height="934.573px" viewBox="0 0 934.573 934.573" style="enable-background:new 0 0 934.573 934.573;"
	 xml:space="preserve">
<g>
	<g>
		<path d="M107.096,0v934.573h95.627v-32.5c0-16.282,13.247-29.528,29.529-29.528c16.282,0,29.529,13.246,29.529,29.528v32.5h97.633
			v-32.5c0-16.282,13.246-29.528,29.527-29.528s29.528,13.246,29.528,29.528v32.5h97.634v-32.5
			c0-16.282,13.246-29.528,29.527-29.528s29.527,13.246,29.527,29.528v32.5h97.635v-32.5c0-16.282,13.246-29.528,29.527-29.528
			c16.283,0,29.529,13.246,29.529,29.528v32.5h95.627V0H731.85v32.5c0,16.282-13.246,29.528-29.529,29.528
			c-16.281,0-29.527-13.246-29.527-29.528V0h-97.635v32.5c0,16.282-13.246,29.528-29.527,29.528S516.104,48.782,516.104,32.5V0
			H418.47v32.5c0,16.282-13.247,29.528-29.528,29.528S359.414,48.782,359.414,32.5V0h-97.633v32.5
			c0,16.282-13.247,29.528-29.529,29.528c-16.282,0-29.529-13.246-29.529-29.528V0H107.096z M232.252,127.028
			c32.564,0,61.338-16.555,78.346-41.688c17.008,25.133,45.78,41.688,78.345,41.688c32.566,0,61.339-16.551,78.346-41.688
			c17.007,25.137,45.779,41.688,78.345,41.688c32.568,0,61.34-16.552,78.346-41.688c17.006,25.137,45.777,41.688,78.346,41.688
			c22.832,0,43.801-8.137,60.156-21.663v723.843c-16.355-13.525-37.324-21.663-60.156-21.663c-32.568,0-61.34,16.552-78.346,41.688
			c-17.006-25.138-45.777-41.688-78.346-41.688c-32.566,0-61.34,16.551-78.346,41.688c-17.007-25.138-45.778-41.688-78.346-41.688
			c-32.563,0-61.337,16.555-78.345,41.688c-17.008-25.134-45.781-41.688-78.346-41.688c-22.833,0-43.801,8.137-60.156,21.663
			V105.365C188.451,118.891,209.419,127.028,232.252,127.028z"/>
		<rect x="283.958" y="205.096" width="375.384" height="65"/>
		<rect x="283.958" y="340.089" width="375.384" height="65"/>
		<rect x="283.958" y="475.082" width="375.384" height="65"/>
		<rect x="419.354" y="670.083" width="239.987" height="65"/>
	</g>
</g>
<g>
</g>
<g>
</g>
<g>
</g>
<g>
</g>
<g>
</g>
<g>
</g>
<g>
</g>
<g>
</g>
<g>
</g>
<g>
</g>
<g>
</g>
<g>
</g>
<g>
</g>
<g>
</g>
<g>
</g>
</svg>
