<?xml version="1.0" encoding="iso-8859-1"?>
<!-- Generator: Adobe Illustrator 19.1.0, SVG Export Plug-In . SVG Version: 6.00 Build 0)  -->
<svg version="1.1" id="Capa_1" xmlns="http://www.w3.org/2000/svg" xmlns:xlink="http://www.w3.org/1999/xlink" x="0px" y="0px"
	 viewBox="0 0 513.32 513.32" style="enable-background:new 0 0 513.32 513.32;" xml:space="preserve">
<path d="M513.32,196.773V64.165H0v132.608c25.666,8.555,42.777,32.082,42.777,59.887S25.666,307.992,0,316.547v132.608h513.32
	V316.547c-25.666-8.555-42.777-32.082-42.777-59.887S487.654,205.328,513.32,196.773L513.32,196.773z M470.543,171.107
	c-25.666,19.249-42.777,51.332-42.777,85.553s17.11,66.304,42.777,85.553v64.165H42.777v-64.165
	c25.666-19.249,42.777-51.332,42.777-85.553s-17.11-66.304-42.777-85.553v-64.165h427.767v64.165L470.543,171.107L470.543,171.107z"
	/>
<path d="M256.758,286.893l-30.247-30.247l30.247-30.247l30.247,30.247L256.758,286.893z"/>
<path d="M342.312,286.894l-30.247-30.247l30.247-30.247l30.247,30.247L342.312,286.894z"/>
<path d="M171.205,286.893l-30.247-30.247l30.247-30.247l30.247,30.247L171.205,286.893z"/>
<g>
</g>
<g>
</g>
<g>
</g>
<g>
</g>
<g>
</g>
<g>
</g>
<g>
</g>
<g>
</g>
<g>
</g>
<g>
</g>
<g>
</g>
<g>
</g>
<g>
</g>
<g>
</g>
<g>
</g>
</svg>
