<?xml version="1.0" encoding="iso-8859-1"?>
<!-- Generator: Adobe Illustrator 19.0.0, SVG Export Plug-In . SVG Version: 6.00 Build 0)  -->
<svg version="1.1" id="Layer_1" xmlns="http://www.w3.org/2000/svg" xmlns:xlink="http://www.w3.org/1999/xlink" x="0px" y="0px"
	 viewBox="0 0 330 330" style="enable-background:new 0 0 330 330;" xml:space="preserve">
<g id="XMLID_832_">
	<path id="XMLID_833_" d="M285,109.999h-14.391L205.573,45.37c-5.877-5.84-15.373-5.811-21.213,0.066
		c-5.84,5.876-5.81,15.373,0.066,21.213l43.622,43.35H101.091l44.504-44.405c5.864-5.852,5.875-15.349,0.023-21.213
		c-5.851-5.864-15.349-5.875-21.213-0.025l-65.788,65.643H45H15c-8.284,0-15,6.716-15,15s6.716,15,15,15h17.703l27.588,137.894
		c1.402,7.009,7.556,12.055,14.703,12.058l180.004,0.074c0.002,0,0.004,0,0.006,0c7.15,0,13.307-5.048,14.709-12.06l27.585-137.966
		H315c8.284,0,15-6.716,15-15s-6.716-15-15-15H285z"/>
</g>
<g>
</g>
<g>
</g>
<g>
</g>
<g>
</g>
<g>
</g>
<g>
</g>
<g>
</g>
<g>
</g>
<g>
</g>
<g>
</g>
<g>
</g>
<g>
</g>
<g>
</g>
<g>
</g>
<g>
</g>
</svg>
